<svg width="314" height="74" viewBox="0 0 314 74" fill="none" xmlns="http://www.w3.org/2000/svg">
<path d="M102.482 27V4.56H119.958V9.082H108.33V13.638H117.578V17.888H108.33V22.478H120.4V27H102.482ZM133.462 10H139.446L133.326 27H126.424L120.304 10H126.39L129.892 22.954L133.462 10ZM148.787 27.34C145.954 27.34 143.71 26.5693 142.055 25.028C140.423 23.4867 139.607 21.3107 139.607 18.5C139.607 16.6413 139.981 15.0547 140.729 13.74C141.5 12.4027 142.543 11.394 143.857 10.714C145.195 10.0113 146.747 9.66 148.515 9.66C150.306 9.66 151.825 10.0113 153.071 10.714C154.341 11.394 155.304 12.346 155.961 13.57C156.619 14.7713 156.947 16.154 156.947 17.718C156.947 18.1487 156.925 18.568 156.879 18.976C156.857 19.3613 156.834 19.69 156.811 19.962H145.217C145.376 21.1407 145.761 21.9907 146.373 22.512C146.985 23.0107 147.79 23.26 148.787 23.26C149.649 23.26 150.329 23.09 150.827 22.75C151.349 22.41 151.734 21.934 151.983 21.322L156.607 22.852C156.29 23.8267 155.735 24.654 154.941 25.334C154.171 25.9913 153.241 26.49 152.153 26.83C151.088 27.17 149.966 27.34 148.787 27.34ZM148.515 13.706C146.679 13.706 145.591 14.76 145.251 16.868H151.473C151.224 14.76 150.238 13.706 148.515 13.706ZM159.501 27V10H164.669L164.839 13.434C165.36 12.1873 166.119 11.2467 167.117 10.612C168.114 9.97733 169.293 9.66 170.653 9.66C172.398 9.66 173.815 10.17 174.903 11.19C175.991 12.21 176.535 13.706 176.535 15.678V27H170.755V17.208C170.755 16.0293 170.528 15.2133 170.075 14.76C169.621 14.3067 169.043 14.08 168.341 14.08C167.502 14.08 166.777 14.3747 166.165 14.964C165.575 15.5533 165.281 16.562 165.281 17.99V27H159.501ZM191.977 10V14.114H186.911V20.948C186.911 21.764 187.104 22.3533 187.489 22.716C187.897 23.056 188.453 23.226 189.155 23.226C189.699 23.226 190.164 23.1693 190.549 23.056C190.935 22.92 191.297 22.7273 191.637 22.478L192.249 26.048C191.683 26.4333 190.957 26.7507 190.073 27C189.212 27.2267 188.339 27.34 187.455 27.34C185.506 27.34 183.965 26.932 182.831 26.116C181.721 25.2773 181.154 23.872 181.131 21.9V14.114H178.207V10H181.131V6.192L186.911 4.594V10H191.977ZM201.107 27.34C199.407 27.34 197.832 27.068 196.381 26.524C194.93 25.9573 193.718 25.1527 192.743 24.11L195.463 20.914C196.03 21.6393 196.778 22.2513 197.707 22.75C198.659 23.226 199.713 23.464 200.869 23.464C201.572 23.464 202.15 23.362 202.603 23.158C203.056 22.954 203.283 22.6367 203.283 22.206C203.283 21.9113 203.17 21.662 202.943 21.458C202.716 21.254 202.263 21.084 201.583 20.948L199.203 20.472C197.072 20.0413 195.554 19.4067 194.647 18.568C193.763 17.7067 193.321 16.5847 193.321 15.202C193.321 14.2727 193.604 13.3887 194.171 12.55C194.738 11.7113 195.61 11.02 196.789 10.476C197.968 9.932 199.475 9.66 201.311 9.66C204.824 9.66 207.386 10.6347 208.995 12.584L206.241 15.712C205.697 15.032 204.994 14.4993 204.133 14.114C203.272 13.7287 202.41 13.536 201.549 13.536C199.894 13.536 199.067 13.9553 199.067 14.794C199.067 15.0887 199.203 15.3493 199.475 15.576C199.77 15.8027 200.302 15.984 201.073 16.12L204.167 16.732C205.912 17.072 207.17 17.6613 207.941 18.5C208.712 19.316 209.097 20.3133 209.097 21.492C209.097 23.1467 208.428 24.5407 207.091 25.674C205.776 26.7847 203.782 27.34 201.107 27.34Z" fill="black"/>
<path d="M122.949 43V34.42H127.122C128.179 34.42 128.959 34.6193 129.462 35.018C129.965 35.4167 130.216 35.9887 130.216 36.734C130.216 37.2193 130.073 37.6397 129.787 37.995C129.501 38.3503 129.063 38.5713 128.474 38.658V38.671C129.133 38.7577 129.622 38.9873 129.943 39.36C130.272 39.724 130.437 40.166 130.437 40.686C130.437 41.4227 130.173 41.9947 129.644 42.402C129.124 42.8007 128.348 43 127.317 43H122.949ZM125.107 37.93H126.732C127.529 37.93 127.928 37.618 127.928 36.994C127.928 36.37 127.529 36.058 126.732 36.058H125.107V37.93ZM125.107 41.427H126.94C127.746 41.427 128.149 41.1063 128.149 40.465C128.149 39.841 127.746 39.529 126.94 39.529H125.107V41.427ZM137.959 36.5L135.593 43C135.35 43.6847 135.086 44.2307 134.8 44.638C134.514 45.054 134.176 45.3487 133.786 45.522C133.396 45.704 132.928 45.795 132.382 45.795C132.009 45.795 131.671 45.756 131.368 45.678C131.073 45.6 130.813 45.4917 130.588 45.353L131.03 43.858C131.186 43.9707 131.35 44.0487 131.524 44.092C131.697 44.144 131.918 44.17 132.187 44.17C132.438 44.17 132.642 44.1267 132.798 44.04C132.962 43.962 133.092 43.7973 133.188 43.546L133.357 43.143L132.603 41.375L130.653 36.5H133.084L134.085 40.205L134.397 41.583L134.761 40.153L135.762 36.5H137.959ZM148.478 36.149H144.045V37.969H147.581V39.698H144.045V43H141.809V34.42H148.478V36.149ZM152.994 43.13C152.231 43.13 151.551 42.961 150.953 42.623C150.364 42.285 149.904 41.7867 149.575 41.128C149.246 40.4693 149.081 39.6677 149.081 38.723C149.081 37.8043 149.254 37.0157 149.601 36.357C149.948 35.6897 150.442 35.1783 151.083 34.823C151.733 34.4677 152.496 34.29 153.371 34.29C154.35 34.29 155.135 34.4677 155.724 34.823C156.322 35.1697 156.786 35.7243 157.115 36.487L155.048 37.306C154.935 36.864 154.736 36.5433 154.45 36.344C154.164 36.1447 153.809 36.045 153.384 36.045C152.743 36.045 152.244 36.2747 151.889 36.734C151.542 37.1847 151.369 37.8433 151.369 38.71C151.369 39.6287 151.547 40.3133 151.902 40.764C152.257 41.206 152.79 41.427 153.501 41.427C153.995 41.427 154.407 41.31 154.736 41.076C155.065 40.842 155.23 40.4823 155.23 39.997V39.867H153.267V38.372H157.128V43H155.607L155.516 41.947C155.273 42.3283 154.94 42.623 154.515 42.831C154.099 43.0303 153.592 43.13 152.994 43.13ZM162.519 34.42C163.559 34.42 164.369 34.6713 164.95 35.174C165.539 35.668 165.834 36.37 165.834 37.28C165.834 38.19 165.539 38.8963 164.95 39.399C164.369 39.893 163.559 40.14 162.519 40.14H160.816V43H158.58V34.42H162.519ZM162.168 38.463C163.112 38.463 163.585 38.0687 163.585 37.28C163.585 36.4913 163.112 36.097 162.168 36.097H160.816V38.463H162.168Z" fill="black"/>
<path d="M4 70H310" stroke="black" stroke-width="8" stroke-linecap="round" stroke-linejoin="round"/>
</svg>
